<svg xmlns="http://www.w3.org/2000/svg" width="800" height="600" viewBox="0 0 800 600">
  <defs>
    <linearGradient id="sky" x1="0" y1="0" x2="0" y2="1">
      <stop offset="0%" stop-color="#0f172a"/>
      <stop offset="100%" stop-color="#334155"/>
    </linearGradient>
  </defs>
  <rect width="800" height="600" fill="url(#sky)"/>
  <rect x="0" y="460" width="800" height="140" fill="#1e293b"/>
  <rect x="150" y="300" width="500" height="160" fill="#475569"/>
  <rect x="150" y="300" width="500" height="18" fill="#334155"/>
  <rect x="180" y="340" width="80" height="120" fill="#0f172a"/>
  <rect x="300" y="340" width="80" height="120" fill="#0f172a"/>
  <rect x="420" y="340" width="80" height="120" fill="#0f172a"/>
  <rect x="540" y="340" width="80" height="120" fill="#0f172a"/>
  <rect x="200" y="220" width="400" height="80" fill="#64748b"/>
  <rect x="200" y="220" width="400" height="12" fill="#334155"/>
  <rect x="340" y="250" width="120" height="50" fill="#0f172a"/>
  <rect x="160" y="180" width="90" height="50" fill="#94a3b8"/>
  <circle cx="205" cy="205" r="6" fill="#fbbf24"/>
  <circle cx="640" cy="250" r="6" fill="#fbbf24"/>
  <rect x="0" y="0" width="800" height="600" fill="none"/>
</svg>
